<svg id="svg" version="1.1" xmlns="http://www.w3.org/2000/svg" xmlns:xlink="http://www.w3.org/1999/xlink" width="400" height="399.4389901823282" viewBox="0, 0, 400,399.4389901823282"><g id="svgg"><path id="path0" d="M74.638 0.221 C 74.576 0.282,72.547 0.458,70.130 0.611 C 67.712 0.764,65.644 1.021,65.534 1.181 C 65.425 1.342,63.267 1.681,60.740 1.934 C 58.212 2.188,56.084 2.576,56.011 2.796 C 55.837 3.317,54.745 3.318,54.745 2.797 C 54.745 2.577,54.386 2.398,53.946 2.398 C 53.502 2.398,53.147 2.664,53.147 2.997 C 53.147 3.370,52.769 3.596,52.148 3.596 C 51.598 3.596,51.149 3.735,51.149 3.905 C 51.149 4.251,47.413 5.195,46.042 5.195 C 45.520 5.195,45.155 5.441,45.155 5.794 C 45.155 6.213,44.733 6.394,43.756 6.394 C 42.987 6.394,42.358 6.573,42.358 6.793 C 42.358 7.013,42.064 7.193,41.705 7.193 C 41.346 7.193,40.717 7.580,40.307 8.053 C 39.896 8.526,39.560 8.706,39.560 8.453 C 39.560 8.199,39.291 7.992,38.961 7.992 C 38.631 7.992,38.362 8.262,38.362 8.591 C 38.362 8.921,38.135 9.191,37.858 9.191 C 37.582 9.191,37.130 9.550,36.856 9.990 C 36.581 10.430,35.939 10.789,35.429 10.789 C 34.856 10.789,34.302 11.160,33.982 11.758 C 33.697 12.290,33.041 12.832,32.524 12.962 C 32.007 13.092,31.051 13.720,30.398 14.358 C 29.746 14.996,28.798 15.645,28.292 15.800 C 27.268 16.115,25.974 17.324,25.974 17.965 C 25.974 18.194,25.768 18.382,25.516 18.382 C 24.929 18.382,19.980 23.341,19.980 23.930 C 19.980 24.175,19.710 24.376,19.381 24.376 C 19.051 24.376,18.781 24.549,18.781 24.761 C 18.781 24.974,18.287 25.657,17.682 26.280 C 17.078 26.903,16.314 27.943,15.984 28.592 C 15.335 29.867,15.259 29.977,13.779 31.768 C 13.234 32.428,12.788 33.102,12.788 33.267 C 12.787 33.432,12.517 33.566,12.188 33.566 C 11.815 33.566,11.588 33.944,11.588 34.565 C 11.588 35.115,11.409 35.564,11.189 35.564 C 10.969 35.564,10.789 35.851,10.789 36.201 C 10.789 36.551,10.451 36.927,10.037 37.035 C 9.480 37.180,9.217 37.741,9.024 39.195 C 8.881 40.275,8.635 41.160,8.478 41.162 C 8.083 41.166,7.193 43.158,7.193 44.036 C 7.193 44.431,7.036 44.755,6.844 44.755 C 6.653 44.755,6.383 45.459,6.246 46.320 C 6.108 47.181,5.816 47.945,5.598 48.018 C 5.379 48.092,4.979 49.545,4.708 51.249 C 4.437 52.952,4.076 54.346,3.906 54.346 C 3.736 54.346,3.596 54.705,3.596 55.145 C 3.596 55.589,3.330 55.944,2.997 55.944 C 2.274 55.944,2.224 56.410,2.877 57.063 C 3.186 57.372,3.204 57.542,2.928 57.542 C 2.682 57.542,2.395 58.858,2.252 60.639 C 1.730 67.135,1.482 68.940,1.076 69.198 C 0.554 69.531,0.584 330.478,1.106 330.834 C 1.296 330.963,1.675 333.492,1.947 336.453 C 2.219 339.415,2.585 341.932,2.761 342.048 C 2.937 342.163,3.178 343.134,3.295 344.205 C 3.413 345.276,3.681 346.265,3.891 346.403 C 4.619 346.880,4.870 348.851,4.203 348.851 C 3.870 348.851,3.596 349.121,3.596 349.451 C 3.596 349.784,3.952 350.050,4.396 350.050 C 4.928 350.050,5.195 350.316,5.195 350.849 C 5.195 351.289,5.375 351.648,5.594 351.648 C 5.814 351.648,5.994 352.175,5.994 352.819 C 5.994 353.462,6.235 354.230,6.529 354.524 C 6.823 354.818,7.183 355.550,7.328 356.151 C 7.474 356.751,7.709 357.737,7.850 358.342 C 7.992 358.946,8.352 359.584,8.650 359.760 C 8.947 359.936,9.191 360.430,9.191 360.859 C 9.191 361.288,9.349 361.638,9.542 361.638 C 9.735 361.638,10.117 362.178,10.390 362.837 C 10.663 363.497,11.044 364.036,11.237 364.036 C 11.430 364.036,11.588 364.665,11.588 365.435 C 11.588 366.421,11.768 366.833,12.198 366.833 C 12.533 366.833,12.978 367.283,13.187 367.832 C 13.396 368.382,13.747 368.831,13.969 368.831 C 14.190 368.831,14.480 369.268,14.614 369.801 C 14.748 370.335,15.111 370.869,15.421 370.988 C 15.731 371.106,15.984 371.479,15.984 371.816 C 15.984 372.152,16.254 372.428,16.583 372.428 C 16.913 372.428,17.183 372.762,17.183 373.171 C 17.183 373.580,17.632 374.252,18.182 374.664 C 18.731 375.077,19.181 375.642,19.181 375.919 C 19.181 376.197,19.451 376.424,19.780 376.424 C 20.110 376.424,20.380 376.621,20.380 376.863 C 20.380 377.476,22.743 379.620,23.419 379.620 C 23.725 379.620,23.976 379.890,23.976 380.220 C 23.976 380.549,24.147 380.819,24.356 380.819 C 24.566 380.819,25.335 381.435,26.066 382.188 C 26.797 382.941,27.869 383.676,28.448 383.821 C 29.062 383.975,29.592 384.446,29.720 384.950 C 29.840 385.425,30.530 386.073,31.253 386.389 C 31.976 386.705,32.805 387.200,33.095 387.488 C 33.386 387.776,33.970 388.012,34.394 388.012 C 34.818 388.012,35.165 388.156,35.165 388.331 C 35.165 388.507,35.833 388.892,36.649 389.187 C 37.465 389.482,38.358 389.923,38.633 390.167 C 39.990 391.368,40.372 391.608,40.923 391.608 C 41.576 391.608,43.636 392.443,43.956 392.837 C 44.066 392.973,44.685 393.213,45.331 393.372 C 45.977 393.530,46.786 393.963,47.129 394.332 C 47.534 394.770,48.446 395.024,49.735 395.059 C 50.826 395.089,51.785 395.314,51.866 395.559 C 51.948 395.804,52.427 396.004,52.930 396.004 C 54.654 396.004,56.344 396.503,56.344 397.013 C 56.344 397.340,56.882 397.514,57.842 397.499 C 62.678 397.424,78.561 398.184,78.768 398.500 C 79.077 398.972,325.732 398.942,326.051 398.470 C 326.173 398.288,330.225 397.919,335.055 397.650 C 340.051 397.371,343.944 396.984,344.088 396.751 C 344.227 396.527,345.086 396.243,345.996 396.121 C 346.907 395.999,347.652 395.743,347.652 395.552 C 347.652 395.361,348.046 395.205,348.527 395.205 C 350.148 395.205,354.241 394.229,354.774 393.716 C 355.064 393.436,355.828 393.207,356.472 393.207 C 357.116 393.207,357.642 393.061,357.642 392.882 C 357.642 392.703,358.272 392.310,359.041 392.008 C 359.810 391.706,360.440 391.313,360.440 391.134 C 360.440 390.955,360.786 390.809,361.210 390.809 C 361.634 390.809,362.258 390.532,362.597 390.193 C 362.936 389.854,363.795 389.374,364.505 389.127 C 365.216 388.879,366.166 388.299,366.615 387.839 C 367.065 387.379,367.972 386.735,368.631 386.409 C 369.291 386.082,369.974 385.590,370.150 385.315 C 370.325 385.040,370.730 384.815,371.049 384.815 C 371.368 384.815,371.628 384.635,371.628 384.416 C 371.628 384.196,371.875 384.016,372.175 384.016 C 372.476 384.016,373.719 383.027,374.938 381.818 C 376.156 380.609,377.342 379.620,377.574 379.620 C 377.805 379.620,378.186 379.261,378.422 378.821 C 378.657 378.382,379.113 378.022,379.435 378.022 C 379.757 378.022,380.020 377.662,380.020 377.223 C 380.020 376.783,380.169 376.424,380.352 376.424 C 380.535 376.424,380.914 375.994,381.195 375.469 C 381.476 374.943,382.136 374.284,382.661 374.002 C 383.187 373.721,383.616 373.252,383.616 372.959 C 383.616 372.667,383.945 372.099,384.346 371.698 C 384.748 371.296,385.192 370.667,385.333 370.299 C 385.474 369.931,385.775 369.630,386.001 369.630 C 386.228 369.630,386.414 369.395,386.414 369.106 C 386.414 368.818,386.773 368.196,387.213 367.724 C 387.652 367.253,388.012 366.679,388.012 366.450 C 388.012 366.221,388.244 366.034,388.529 366.034 C 388.813 366.034,389.261 365.225,389.526 364.236 C 389.790 363.247,390.173 362.438,390.376 362.438 C 390.579 362.438,390.864 361.898,391.009 361.239 C 391.154 360.579,391.430 360.040,391.622 360.040 C 391.814 360.040,392.093 359.396,392.240 358.609 C 392.388 357.823,392.737 357.091,393.016 356.984 C 393.295 356.877,393.647 355.964,393.799 354.956 C 393.950 353.947,394.323 352.873,394.628 352.568 C 394.932 352.263,395.300 351.122,395.445 350.033 C 395.589 348.943,395.847 348.052,396.018 348.052 C 396.189 348.052,396.457 347.108,396.614 345.954 C 396.771 344.800,397.070 343.748,397.279 343.616 C 397.487 343.484,397.851 341.461,398.088 339.120 C 398.364 336.390,398.685 334.865,398.984 334.865 C 399.283 334.865,399.458 334.040,399.471 332.567 C 400.033 270.660,399.530 63.137,398.819 63.137 C 398.661 63.137,398.334 61.311,398.092 59.079 C 397.849 56.848,397.461 54.905,397.230 54.762 C 396.999 54.619,396.690 53.613,396.545 52.526 C 396.400 51.439,396.104 50.434,395.888 50.292 C 395.672 50.151,395.495 49.297,395.495 48.394 C 395.495 47.492,395.340 46.753,395.150 46.753 C 394.960 46.753,394.805 46.484,394.805 46.154 C 394.805 45.824,394.641 45.554,394.441 45.554 C 394.240 45.554,393.957 44.849,393.811 43.987 C 393.666 43.125,393.276 42.316,392.945 42.189 C 392.511 42.023,392.415 41.636,392.600 40.794 C 392.806 39.854,392.702 39.581,392.060 39.377 C 391.603 39.232,391.154 38.623,391.005 37.944 C 390.862 37.295,390.625 36.762,390.478 36.760 C 390.188 36.757,389.211 34.827,389.211 34.257 C 389.211 34.066,388.957 33.655,388.647 33.345 C 388.337 33.035,388.178 32.418,388.294 31.975 C 388.466 31.318,388.311 31.169,387.459 31.169 C 386.796 31.169,386.414 30.950,386.414 30.569 C 386.414 30.240,386.234 29.970,386.014 29.970 C 385.794 29.970,385.614 29.766,385.614 29.518 C 385.614 29.269,384.985 28.472,384.216 27.746 C 383.447 27.021,382.817 26.275,382.817 26.090 C 382.817 25.904,382.502 25.468,382.118 25.121 C 380.783 23.916,379.990 22.729,379.763 21.594 C 379.581 20.680,379.264 20.402,378.179 20.198 C 377.376 20.047,376.823 19.707,376.823 19.363 C 376.823 19.043,376.617 18.781,376.364 18.781 C 376.112 18.781,375.294 18.152,374.547 17.383 C 373.800 16.613,373.017 15.984,372.808 15.984 C 372.599 15.984,372.428 15.714,372.428 15.385 C 372.428 15.010,372.049 14.785,371.416 14.785 C 370.860 14.785,370.301 14.515,370.174 14.186 C 370.048 13.856,369.728 13.586,369.463 13.586 C 369.198 13.586,368.596 13.227,368.124 12.787 C 367.652 12.348,367.073 11.988,366.837 11.988 C 366.601 11.988,366.309 11.729,366.188 11.413 C 366.066 11.097,365.431 10.720,364.775 10.576 C 364.119 10.432,363.490 10.072,363.376 9.777 C 363.263 9.481,362.654 9.126,362.023 8.988 C 361.392 8.849,360.769 8.401,360.639 7.991 C 360.473 7.468,360.041 7.258,359.184 7.282 C 358.514 7.301,357.848 7.132,357.704 6.905 C 357.560 6.679,356.813 6.357,356.044 6.190 C 355.275 6.023,354.355 5.551,353.999 5.141 C 353.322 4.360,352.448 4.141,352.448 4.753 C 352.448 4.954,351.752 4.933,350.849 4.704 C 349.970 4.481,349.251 4.164,349.251 3.999 C 349.251 3.834,348.129 3.573,346.758 3.418 C 345.387 3.262,344.169 2.980,344.052 2.790 C 343.811 2.400,337.973 1.598,335.375 1.598 C 334.435 1.598,333.666 1.433,333.666 1.230 C 333.666 0.520,75.345 -0.487,74.638 0.221 M15.984 22.178 C 15.984 22.507,16.254 22.777,16.583 22.777 C 16.913 22.777,17.183 22.507,17.183 22.178 C 17.183 21.848,16.913 21.578,16.583 21.578 C 16.254 21.578,15.984 21.848,15.984 22.178 M253.615 48.155 C 258.299 50.112,258.990 56.530,254.855 59.683 C 253.434 60.768,249.989 61.653,245.355 62.125 C 243.926 62.270,241.768 62.553,240.559 62.752 C 239.351 62.951,236.024 63.398,233.167 63.746 C 230.310 64.093,226.084 64.631,223.776 64.941 C 221.469 65.252,216.703 65.889,213.187 66.357 C 209.670 66.825,205.085 67.443,202.997 67.732 C 200.909 68.020,196.953 68.541,194.206 68.889 C 191.459 69.236,188.761 69.617,188.212 69.735 C 187.662 69.852,185.055 70.222,182.418 70.556 C 173.699 71.660,169.284 72.241,164.635 72.897 C 162.108 73.253,158.152 73.806,155.844 74.126 C 153.536 74.446,150.210 74.907,148.452 75.151 C 144.231 75.737,137.970 76.559,132.112 77.297 C 123.354 78.399,119.406 80.586,115.831 86.314 C 113.552 89.966,113.686 85.493,113.686 157.642 L 113.686 223.576 114.769 225.886 C 116.832 230.290,122.398 234.820,127.173 235.983 L 128.272 236.250 128.272 165.247 L 128.272 94.244 129.440 93.076 L 130.608 91.908 202.751 91.908 C 274.012 91.908,274.921 91.918,277.040 92.710 C 280.091 93.852,282.252 95.865,283.799 99.009 L 285.115 101.681 285.115 172.619 L 285.115 243.556 283.972 245.883 C 281.662 250.589,279.716 251.292,268.132 251.612 C 259.765 251.843,259.512 251.827,258.469 250.992 L 257.397 250.134 257.270 214.877 L 257.143 179.620 256.200 177.822 C 253.152 172.012,253.219 172.028,232.767 172.028 C 213.391 172.028,213.918 171.950,211.012 175.260 C 208.298 178.350,208.276 178.502,208.097 195.260 C 207.922 211.517,207.792 212.657,205.391 218.914 C 201.034 230.271,190.557 240.470,177.822 245.751 C 176.174 246.434,174.466 247.150,174.026 247.342 C 172.743 247.901,167.836 249.253,165.235 249.763 C 163.916 250.022,162.028 250.404,161.039 250.612 C 158.253 251.199,134.642 251.509,130.601 251.012 C 114.710 249.059,101.933 236.528,99.905 220.907 C 99.361 216.720,99.376 92.896,99.920 88.840 C 101.237 79.034,106.801 71.455,115.752 67.277 C 120.475 65.072,120.367 65.092,148.252 61.341 C 150.559 61.031,155.235 60.395,158.641 59.929 C 172.797 57.992,180.226 56.982,189.411 55.747 C 191.718 55.436,196.394 54.801,199.800 54.335 C 203.207 53.868,207.792 53.245,209.990 52.949 C 213.737 52.444,216.003 52.131,223.377 51.099 C 225.025 50.869,228.352 50.439,230.769 50.145 C 237.593 49.316,242.087 48.704,245.355 48.159 C 249.562 47.457,251.943 47.456,253.615 48.155 M154.676 113.128 C 149.232 115.543,148.651 117.585,148.651 134.302 L 148.651 147.902 149.674 150.064 C 152.311 155.637,153.418 155.925,171.628 155.770 L 186.414 155.644 188.028 154.594 C 192.510 151.676,192.795 150.325,192.481 133.508 C 192.171 116.955,191.754 115.451,186.828 113.136 C 184.150 111.877,157.512 111.870,154.676 113.128 M214.357 113.069 C 209.487 115.236,208.890 117.308,208.694 132.718 C 208.480 149.514,208.887 151.392,213.402 154.441 L 215.185 155.644 230.569 155.644 L 245.954 155.644 247.552 154.596 C 252.324 151.466,252.547 150.558,252.547 134.287 C 252.547 117.469,252.083 115.677,247.069 113.139 C 244.662 111.921,217.068 111.862,214.357 113.069 M177.332 125.010 C 177.678 125.230,177.869 126.628,177.931 129.400 L 178.021 133.467 179.697 133.467 C 182.555 133.467,183.901 137.843,181.749 140.134 C 180.484 141.480,161.650 141.597,160.446 140.267 C 158.268 137.861,159.734 133.467,162.714 133.467 L 164.236 133.467 164.236 129.802 C 164.236 124.601,164.137 124.674,171.191 124.681 C 174.289 124.685,177.052 124.833,177.332 125.010 M237.682 125.155 C 237.990 125.463,238.162 127.037,238.162 129.550 L 238.162 133.467 239.816 133.467 C 242.403 133.467,243.772 137.457,241.896 139.529 C 241.127 140.379,220.488 140.681,219.974 139.850 C 218.314 137.165,219.720 133.542,222.478 133.398 L 224.176 133.310 224.176 129.766 C 224.176 124.450,223.870 124.675,231.103 124.675 C 235.314 124.675,237.351 124.824,237.682 125.155 M155.448 172.754 C 153.109 173.498,150.049 176.846,149.296 179.482 C 148.218 183.260,148.351 206.560,149.468 209.546 C 151.738 215.611,153.553 216.184,170.524 216.184 C 186.260 216.184,186.742 216.109,189.630 213.215 C 192.910 209.928,193.034 209.101,192.657 193.007 C 192.276 176.747,191.889 175.455,186.716 173.167 C 184.300 172.098,158.573 171.758,155.448 172.754 M177.832 185.640 C 178.046 186.204,178.222 188.182,178.222 190.036 L 178.222 193.407 179.798 193.407 C 181.826 193.407,182.617 194.460,182.617 197.160 C 182.617 200.667,182.844 200.599,171.047 200.599 C 159.256 200.599,159.840 200.790,159.840 196.937 C 159.840 193.886,160.244 193.407,162.811 193.407 L 164.236 193.407 164.236 189.742 C 164.236 184.515,164.094 184.615,171.500 184.615 L 177.442 184.615 177.832 185.640 M61.213 293.915 C 68.021 295.333,71.514 298.631,72.176 304.269 L 72.438 306.494 68.431 306.494 L 64.425 306.494 64.164 305.107 C 62.808 297.874,49.498 299.326,50.473 306.601 C 50.794 308.995,52.293 310.185,56.612 311.476 C 58.552 312.056,61.399 312.904,62.937 313.360 C 72.044 316.063,75.641 321.569,73.380 329.345 C 70.556 339.061,52.857 341.985,45.187 334.003 C 43.421 332.166,41.958 328.737,41.958 326.438 L 41.958 324.875 45.954 324.875 C 49.710 324.875,49.950 324.924,49.950 325.690 C 49.950 332.783,64.268 333.978,65.719 327.006 C 66.648 322.548,64.569 320.914,54.346 318.066 C 47.823 316.249,44.136 313.630,42.903 309.938 C 39.544 299.885,49.219 291.418,61.213 293.915 M130.144 293.733 C 133.370 294.955,134.302 298.989,131.837 301.063 C 129.986 302.621,126.671 302.556,125.044 300.930 C 121.666 297.552,125.594 292.009,130.144 293.733 M197.494 301.789 L 197.602 309.872 198.402 309.040 C 203.674 303.546,212.945 305.240,216.428 312.335 L 217.582 314.685 217.705 326.388 L 217.827 338.091 213.908 337.977 L 209.990 337.862 209.790 327.054 C 209.550 314.039,209.090 312.887,204.135 312.887 C 198.540 312.887,197.403 315.444,197.403 328.022 L 197.403 338.091 193.506 337.977 L 189.610 337.862 189.507 315.784 L 189.404 293.706 193.395 293.706 L 197.386 293.706 197.494 301.789 M336.863 306.500 L 336.863 319.293 340.832 314.592 C 343.015 312.006,345.488 309.116,346.327 308.171 L 347.852 306.452 352.632 306.573 L 357.412 306.693 354.203 310.290 C 352.438 312.268,350.467 314.498,349.823 315.246 C 349.178 315.995,348.154 317.162,347.546 317.840 C 346.186 319.357,345.673 318.266,352.599 328.583 C 355.812 333.370,358.442 337.461,358.442 337.674 C 358.442 337.901,356.663 338.057,354.146 338.050 L 349.850 338.038 347.993 335.153 C 346.971 333.566,344.920 330.403,343.436 328.124 L 340.736 323.980 338.813 326.126 L 336.889 328.272 336.776 333.067 L 336.663 337.862 332.767 337.977 L 328.871 338.091 328.871 315.899 L 328.871 293.706 332.867 293.706 L 336.863 293.706 336.863 306.500 M244.683 295.138 C 253.908 297.528,257.315 309.192,250.170 313.920 L 248.531 315.005 250.439 316.100 C 259.333 321.203,255.961 334.611,245.073 337.432 C 242.215 338.172,223.946 338.370,223.710 337.663 C 223.636 337.444,223.624 327.644,223.683 315.885 L 223.790 294.505 233.016 294.505 C 240.136 294.505,242.799 294.650,244.683 295.138 M148.360 302.597 L 148.372 306.494 151.725 306.494 L 155.077 306.494 154.961 309.790 L 154.845 313.087 151.559 313.203 L 148.273 313.319 148.362 321.730 C 148.468 331.664,148.470 331.668,152.692 331.668 L 155.045 331.668 155.045 334.678 C 155.045 338.295,155.088 338.264,150.050 338.242 C 142.070 338.207,140.659 335.874,140.659 322.714 L 140.659 313.328 138.561 313.208 L 136.464 313.087 136.347 309.790 L 136.231 306.494 138.469 306.494 L 140.706 306.494 140.657 302.797 C 140.630 300.764,140.620 298.960,140.634 298.787 C 140.648 298.614,142.389 298.524,144.503 298.587 L 148.347 298.701 148.360 302.597 M231.668 301.924 C 231.503 302.093,231.369 304.539,231.369 307.359 L 231.369 312.488 236.470 312.488 C 242.320 312.488,243.866 311.978,245.054 309.656 C 246.357 307.111,245.563 304.237,243.113 302.632 C 241.962 301.878,232.297 301.280,231.668 301.924 M175.672 306.319 C 180.474 307.433,183.731 310.062,185.125 313.951 C 186.446 317.637,186.406 317.682,181.818 317.682 C 178.079 317.682,177.822 317.631,177.822 316.877 C 177.822 313.677,171.033 311.636,167.977 313.918 C 163.568 317.209,163.895 328.117,168.482 330.763 C 171.862 332.712,177.308 331.249,177.825 328.253 L 178.028 327.073 181.921 326.959 L 185.814 326.844 185.816 327.958 C 185.833 337.706,170.054 342.249,161.746 334.887 C 156.209 329.981,155.256 318.334,159.838 311.557 C 162.925 306.991,169.372 304.858,175.672 306.319 M277.969 306.319 C 282.577 307.388,286.827 310.639,288.324 314.242 C 288.700 315.145,289.210 316.316,289.458 316.844 C 290.533 319.127,290.025 326.838,288.608 329.734 C 282.802 341.603,264.993 341.493,259.528 329.555 C 253.668 316.756,264.441 303.182,277.969 306.319 M312.997 306.446 C 324.202 309.246,328.732 323.150,321.566 332.747 C 318.510 336.839,315.271 338.243,308.891 338.241 C 298.714 338.238,293.107 332.564,293.107 322.269 C 293.107 310.677,301.908 303.675,312.997 306.446 M83.667 308.591 C 84.000 309.745,84.449 311.409,84.665 312.288 C 85.149 314.265,86.538 319.540,87.347 322.478 C 87.680 323.686,88.157 325.485,88.406 326.474 C 88.704 327.655,88.911 327.998,89.009 327.473 C 89.197 326.469,90.604 321.601,91.319 319.481 C 91.616 318.601,92.239 316.533,92.703 314.885 C 93.168 313.237,93.691 311.618,93.865 311.289 C 94.040 310.959,94.408 309.745,94.683 308.591 L 95.185 306.494 98.674 306.494 L 102.163 306.494 102.602 308.192 C 103.072 310.006,104.064 313.331,106.688 321.878 C 107.160 323.417,107.745 325.443,107.988 326.381 L 108.430 328.087 108.919 326.664 C 109.188 325.881,109.524 324.574,109.665 323.759 C 109.807 322.945,110.183 321.379,110.501 320.280 C 110.819 319.181,111.619 316.034,112.280 313.287 C 112.941 310.539,113.593 307.887,113.730 307.393 C 113.959 306.565,121.878 305.872,121.878 306.679 C 121.878 306.782,121.618 307.636,121.300 308.577 C 120.982 309.519,120.548 311.009,120.335 311.888 C 120.122 312.767,119.553 314.835,119.071 316.484 C 118.588 318.132,117.943 320.425,117.638 321.578 C 117.333 322.732,116.818 324.620,116.493 325.774 C 116.169 326.928,115.525 329.221,115.061 330.869 C 114.598 332.517,113.996 334.765,113.724 335.864 L 113.228 337.862 108.973 337.975 L 104.717 338.089 104.473 336.976 C 104.339 336.365,104.048 335.325,103.826 334.665 C 103.604 334.006,103.187 332.567,102.901 331.469 C 102.615 330.370,101.714 327.223,100.899 324.476 C 100.085 321.728,99.326 319.076,99.213 318.581 C 98.893 317.181,98.499 317.511,98.020 319.580 C 97.563 321.552,96.962 323.781,95.513 328.871 C 95.044 330.519,94.424 332.767,94.136 333.866 C 93.848 334.965,93.413 336.359,93.170 336.963 L 92.727 338.062 88.533 338.062 L 84.338 338.062 83.701 335.764 C 83.351 334.500,82.905 333.017,82.712 332.468 C 82.518 331.918,82.185 330.839,81.972 330.070 C 81.759 329.301,80.940 326.469,80.153 323.776 C 79.365 321.084,78.103 316.768,77.348 314.186 C 76.593 311.603,75.784 308.862,75.550 308.095 C 75.316 307.327,75.125 306.652,75.125 306.596 C 75.125 306.540,76.910 306.494,79.093 306.494 L 83.060 306.494 83.667 308.591 M132.572 322.178 L 132.468 337.862 128.571 337.977 L 124.675 338.091 124.675 322.292 L 124.675 306.494 128.676 306.494 L 132.677 306.494 132.572 322.178 M271.056 313.302 C 264.878 315.210,264.379 327.380,270.340 330.756 C 276.378 334.176,282.514 329.258,282.031 321.385 C 281.638 314.975,276.912 311.494,271.056 313.302 M306.150 313.152 C 299.821 314.509,299.061 327.332,305.106 330.756 C 311.140 334.174,317.266 329.268,316.805 321.385 C 316.439 315.109,312.221 311.850,306.150 313.152 M231.458 324.975 L 231.568 330.669 237.163 330.667 C 245.202 330.664,247.115 329.638,247.100 325.336 C 247.083 320.486,245.128 319.284,237.252 319.282 L 231.347 319.281 231.458 324.975 " stroke="none" fill="#1c3343" fill-rule="evenodd"></path><path id="path1" d="M246.553 48.357 C 241.751 49.086,226.363 51.139,218.382 52.116 C 215.524 52.466,212.737 52.861,212.188 52.994 C 211.638 53.128,209.211 53.480,206.793 53.777 C 204.376 54.074,199.700 54.690,196.404 55.146 C 186.330 56.541,181.801 57.150,177.423 57.700 C 175.115 57.990,172.686 58.348,172.026 58.495 C 171.366 58.641,168.578 59.039,165.832 59.377 C 154.707 60.749,152.404 61.056,151.449 61.295 C 150.899 61.432,148.112 61.826,145.255 62.171 C 142.398 62.515,138.352 63.031,136.264 63.316 C 134.176 63.602,130.220 64.133,127.473 64.498 C 124.725 64.862,122.118 65.320,121.678 65.516 C 121.239 65.712,120.358 65.986,119.722 66.125 C 118.248 66.447,112.681 69.080,111.970 69.791 C 111.674 70.087,111.306 70.330,111.154 70.330 C 109.834 70.330,104.526 76.722,102.704 80.506 C 99.963 86.198,100.145 81.266,99.996 153.846 C 99.849 225.388,99.746 221.601,102.015 227.972 C 106.208 239.749,116.525 248.350,128.871 250.360 C 137.405 251.750,159.510 250.952,167.048 248.982 C 173.947 247.178,174.122 247.117,179.820 244.454 C 190.921 239.267,201.850 228.456,204.593 219.952 C 204.871 219.088,205.235 218.202,205.401 217.982 C 205.566 217.762,205.824 216.953,205.973 216.184 C 206.122 215.415,206.408 214.336,206.608 213.786 C 207.399 211.620,207.817 205.416,208.035 192.607 C 208.400 171.174,208.090 171.440,232.706 171.433 C 250.657 171.428,251.116 171.499,254.348 174.810 C 257.897 178.445,257.742 176.581,257.742 215.778 C 257.742 249.590,257.746 249.754,258.569 250.577 C 259.819 251.827,276.132 251.612,278.921 250.308 C 281.308 249.193,282.832 247.605,283.974 245.044 L 284.915 242.934 284.915 172.831 C 284.915 103.094,284.911 102.716,284.094 100.534 C 283.126 97.944,280.278 94.623,277.967 93.387 L 276.324 92.507 203.483 92.403 L 130.641 92.299 129.656 93.284 L 128.671 94.269 128.671 165.416 C 128.671 222.068,128.570 236.563,128.172 236.563 C 127.897 236.563,126.706 236.196,125.525 235.747 C 119.145 233.322,115.940 230.156,113.848 224.213 C 112.771 221.155,112.648 95.851,113.717 91.234 C 115.888 81.860,121.187 78.233,135.265 76.485 C 138.122 76.130,142.168 75.613,144.256 75.335 C 146.344 75.058,150.390 74.536,153.247 74.176 C 156.104 73.816,159.251 73.352,160.240 73.145 C 161.229 72.938,163.207 72.659,164.635 72.526 C 166.064 72.393,168.132 72.113,169.231 71.904 C 170.330 71.695,173.477 71.249,176.224 70.914 C 178.971 70.579,183.107 70.047,185.415 69.730 C 187.722 69.414,192.398 68.774,195.804 68.307 C 202.084 67.447,206.528 66.866,215.185 65.772 C 217.822 65.439,220.519 65.058,221.179 64.926 C 221.838 64.794,224.446 64.436,226.973 64.130 C 229.500 63.824,232.827 63.393,234.366 63.171 C 238.084 62.636,243.145 61.998,247.552 61.508 C 255.417 60.635,259.106 56.534,256.563 51.490 C 254.968 48.325,252.288 47.487,246.553 48.357 M185.938 112.379 C 188.005 112.989,190.612 115.372,191.788 117.727 L 192.759 119.672 192.783 134.461 C 192.810 150.874,192.909 150.197,190.017 153.371 C 187.461 156.176,187.009 156.244,170.829 156.244 C 153.205 156.244,152.724 156.121,149.612 150.825 L 148.452 148.851 148.320 135.864 C 148.138 117.788,148.866 115.197,154.847 112.628 C 157.193 111.620,182.675 111.416,185.938 112.379 M245.310 112.107 C 247.995 112.861,250.457 114.855,251.707 117.290 C 252.960 119.730,253.187 147.965,251.973 150.411 C 249.269 155.861,247.865 156.244,230.569 156.244 C 207.773 156.244,207.872 156.361,208.505 130.224 L 208.791 118.390 210.144 116.408 C 213.124 112.042,214.476 111.721,230.512 111.573 C 241.073 111.475,243.348 111.557,245.310 112.107 M225.253 125.388 C 224.776 125.915,224.577 127.087,224.492 129.884 L 224.376 133.666 222.378 133.866 L 220.380 134.066 220.380 137.063 L 220.380 140.060 230.530 140.167 C 242.234 140.290,242.158 140.310,242.158 137.077 C 242.158 134.700,241.555 133.937,239.560 133.787 L 237.962 133.666 237.862 130.070 C 237.698 124.168,238.286 124.675,231.623 124.675 C 226.636 124.675,225.815 124.767,225.253 125.388 M165.049 125.848 C 164.822 126.273,164.635 128.251,164.635 130.243 L 164.635 133.866 162.860 133.866 C 160.190 133.866,159.063 136.166,160.230 139.235 L 160.620 140.260 171.176 140.260 C 183.045 140.260,182.218 140.499,182.218 137.059 C 182.218 134.663,181.512 133.866,179.392 133.866 L 177.822 133.866 177.822 129.950 C 177.822 127.437,177.650 125.862,177.343 125.554 C 176.436 124.648,165.552 124.907,165.049 125.848 M186.692 172.522 C 188.329 173.235,190.838 175.663,191.878 177.541 C 192.805 179.217,192.807 179.257,192.807 194.434 L 192.807 209.648 191.762 211.218 C 188.445 216.202,188.717 216.136,170.771 216.270 L 155.591 216.384 153.647 215.184 C 152.577 214.525,151.061 213.092,150.277 212.001 L 148.851 210.017 148.733 195.025 C 148.546 171.452,148.159 171.835,172.028 171.973 C 181.393 172.028,185.949 172.198,186.692 172.522 M165.055 185.778 C 164.824 186.208,164.635 188.191,164.635 190.184 L 164.635 193.806 162.917 193.806 C 160.689 193.806,160.240 194.318,160.240 196.850 C 160.240 200.459,159.407 200.200,170.992 200.200 C 182.640 200.200,182.218 200.320,182.218 197.003 C 182.218 194.317,181.792 193.806,179.554 193.806 L 177.849 193.806 177.736 189.510 L 177.622 185.215 171.548 185.105 C 165.863 185.001,165.447 185.045,165.055 185.778 M54.346 294.096 C 41.772 296.285,38.035 310.154,48.551 315.601 C 50.309 316.511,54.831 318.082,55.694 318.082 C 56.429 318.082,61.029 319.553,62.604 320.292 C 65.223 321.520,66.679 324.307,66.157 327.093 C 64.917 333.702,50.953 333.539,50.063 326.904 L 49.845 325.275 46.046 325.275 L 42.248 325.275 42.516 327.561 C 44.368 343.320,73.526 341.412,73.526 325.532 C 73.526 318.631,70.665 315.890,60.525 313.079 C 51.039 310.449,49.250 308.951,50.111 304.360 C 51.239 298.349,63.385 298.844,64.607 304.951 L 64.835 306.094 68.436 306.094 L 72.037 306.094 71.785 304.259 C 70.792 297.011,63.158 292.562,54.346 294.096 M126.982 293.993 C 125.185 294.264,124.163 295.949,124.385 298.276 C 124.870 303.382,132.667 303.068,132.667 297.943 C 132.667 294.953,130.518 293.460,126.982 293.993 M189.810 315.884 L 189.810 337.662 193.407 337.662 L 197.003 337.662 197.005 328.372 C 197.008 315.212,198.263 312.488,204.321 312.488 C 209.365 312.488,210.197 314.553,210.305 327.335 L 210.390 337.463 213.922 337.579 L 217.455 337.695 217.311 325.990 L 217.168 314.286 216.112 312.288 C 212.610 305.661,203.807 304.111,198.801 309.239 C 197.000 311.084,197.003 311.095,197.003 302.298 L 197.003 294.106 193.407 294.106 L 189.810 294.106 189.810 315.884 M329.271 315.884 L 329.271 337.662 332.867 337.662 L 336.464 337.662 336.464 332.886 L 336.464 328.109 338.641 325.806 C 339.839 324.539,340.878 323.587,340.951 323.690 C 341.099 323.900,344.390 328.909,347.833 334.166 L 350.124 337.662 354.116 337.662 C 356.312 337.662,358.049 337.518,357.975 337.341 C 357.902 337.165,356.583 335.176,355.045 332.922 C 353.506 330.667,352.068 328.535,351.848 328.183 C 351.628 327.831,350.235 325.762,348.751 323.586 C 347.268 321.410,346.054 319.531,346.054 319.410 C 346.054 319.060,349.371 315.106,353.991 309.950 C 357.090 306.491,357.199 306.681,352.168 306.764 L 347.892 306.835 346.473 308.547 C 345.693 309.488,344.695 310.650,344.256 311.130 C 343.816 311.610,342.018 313.720,340.260 315.819 C 338.501 317.918,336.928 319.645,336.763 319.658 C 336.598 319.670,336.464 313.926,336.464 306.893 L 336.464 294.106 332.867 294.106 L 329.271 294.106 329.271 315.884 M224.176 316.279 L 224.176 337.740 234.665 337.586 L 245.155 337.431 247.776 336.208 C 256.529 332.122,257.509 319.563,249.357 315.957 C 247.719 315.233,247.633 315.126,248.358 314.725 C 254.516 311.314,255.142 302.665,249.584 297.785 C 248.781 297.080,247.906 296.502,247.638 296.501 C 247.371 296.500,246.613 296.199,245.954 295.833 C 244.949 295.275,243.094 295.139,234.466 294.993 L 224.176 294.818 224.176 316.279 M140.974 302.797 L 140.859 306.693 138.861 306.719 L 136.863 306.744 136.738 309.594 L 136.613 312.444 138.736 312.566 L 140.859 312.687 141.059 322.877 C 141.251 332.695,141.292 333.114,142.174 334.350 C 144.166 337.143,147.543 338.291,152.303 337.793 L 154.645 337.548 154.645 334.608 L 154.645 331.668 152.480 331.668 C 148.051 331.668,147.852 331.225,147.852 321.331 C 147.852 311.849,147.589 312.488,151.491 312.488 L 154.645 312.488 154.645 309.590 L 154.646 306.693 151.948 306.779 C 147.731 306.914,147.852 307.036,147.852 302.670 L 147.852 298.901 144.470 298.901 L 141.088 298.901 140.974 302.797 M241.675 301.542 C 246.698 302.546,247.409 310.478,242.652 312.448 C 241.943 312.742,239.630 312.871,236.350 312.800 L 231.169 312.687 231.056 307.514 C 230.995 304.668,231.034 302.106,231.144 301.819 C 231.357 301.264,239.246 301.056,241.675 301.542 M169.023 306.445 C 164.679 307.082,160.400 310.384,158.605 314.486 C 156.394 319.534,157.372 329.010,160.531 333.151 C 167.037 341.681,183.790 338.977,185.192 329.171 L 185.464 327.273 182.022 327.273 L 178.581 327.273 178.035 328.580 C 175.980 333.498,167.986 333.046,165.460 327.869 C 164.143 325.169,164.081 319.642,165.338 316.830 C 167.741 311.452,175.312 310.832,177.730 315.814 L 178.637 317.682 182.061 317.682 L 185.485 317.682 185.212 315.984 C 184.137 309.305,177.239 305.241,169.023 306.445 M271.329 306.352 C 269.892 306.522,269.709 306.588,266.379 308.118 C 260.687 310.733,257.658 317.715,258.860 325.446 C 261.532 342.632,286.720 342.635,289.391 325.450 C 291.240 313.562,283.103 304.958,271.329 306.352 M306.094 306.352 C 305.325 306.443,304.336 306.684,303.896 306.887 C 303.457 307.091,302.426 307.524,301.607 307.850 C 291.112 312.030,290.553 330.531,300.750 336.230 C 311.975 342.503,324.279 335.200,324.257 322.278 C 324.239 311.495,316.913 305.071,306.094 306.352 M75.924 307.325 C 75.924 307.910,76.752 310.927,78.110 315.285 C 78.418 316.274,78.794 317.706,78.946 318.468 C 79.098 319.230,79.367 320.130,79.544 320.466 C 79.721 320.803,80.051 321.798,80.277 322.677 C 81.421 327.130,81.989 329.145,82.303 329.870 C 82.493 330.310,82.862 331.479,83.123 332.468 C 83.383 333.457,83.800 335.036,84.050 335.977 L 84.503 337.687 88.676 337.575 L 92.848 337.463 93.354 335.465 C 94.219 332.053,95.357 327.900,95.600 327.273 C 95.841 326.649,96.278 325.017,97.474 320.280 C 98.172 317.512,99.500 316.052,99.500 318.051 C 99.500 318.506,99.837 319.913,100.248 321.177 C 101.072 323.710,101.848 326.327,103.122 330.869 C 103.584 332.517,104.233 334.727,104.565 335.778 L 105.168 337.690 108.986 337.576 L 112.804 337.463 113.503 335.065 C 113.887 333.746,114.599 331.229,115.086 329.471 C 115.573 327.712,116.206 325.465,116.494 324.476 C 116.781 323.487,117.414 321.149,117.900 319.281 C 118.386 317.413,118.881 315.614,119.000 315.285 C 119.410 314.154,120.739 309.091,120.941 307.892 L 121.143 306.693 117.870 306.758 C 114.020 306.833,114.169 306.718,113.319 310.290 C 112.952 311.828,112.408 314.076,112.108 315.285 C 111.167 319.083,109.847 324.600,109.408 326.573 C 108.739 329.576,108.376 329.136,106.689 323.277 C 106.214 321.628,105.482 319.245,105.061 317.980 C 104.640 316.716,104.296 315.333,104.296 314.907 C 104.296 314.481,104.139 314.036,103.948 313.918 C 103.756 313.800,103.486 313.115,103.346 312.396 C 103.206 311.677,102.799 310.145,102.440 308.991 L 101.789 306.893 99.279 306.893 C 97.898 306.893,96.523 306.799,96.222 306.683 C 95.839 306.536,95.467 307.163,94.979 308.781 C 94.597 310.050,93.823 312.617,93.260 314.486 C 92.696 316.354,92.087 318.242,91.906 318.681 C 91.725 319.121,91.389 320.200,91.159 321.079 C 90.177 324.833,89.453 327.511,89.275 328.039 C 88.943 329.028,88.264 327.902,87.692 325.413 C 86.781 321.454,86.012 318.564,85.761 318.157 C 85.628 317.943,85.258 316.625,84.938 315.228 C 83.737 309.989,83.053 307.482,82.734 307.157 C 82.069 306.477,75.924 306.628,75.924 307.325 M125.240 306.860 C 125.149 306.951,125.075 313.919,125.075 322.344 L 125.075 337.662 128.671 337.662 L 132.268 337.662 132.268 322.307 L 132.268 306.952 128.836 306.823 C 126.949 306.751,125.330 306.768,125.240 306.860 M277.553 313.128 C 279.237 313.927,281.718 316.627,281.718 317.660 C 281.718 318.086,281.898 318.545,282.118 318.681 C 282.784 319.093,282.585 324.471,281.830 326.460 C 279.100 333.654,269.618 333.940,266.509 326.922 C 262.872 318.713,270.154 309.617,277.553 313.128 M311.841 312.869 C 319.246 315.684,318.963 329.544,311.459 331.628 C 305.236 333.356,300.500 329.239,300.500 322.103 C 300.500 315.244,306.098 310.686,311.841 312.869 M243.379 319.280 C 247.465 320.415,248.837 326.705,245.608 329.498 C 243.733 331.120,242.397 331.354,235.964 331.191 L 231.169 331.069 231.059 324.975 L 230.948 318.881 236.453 318.883 C 239.481 318.885,242.598 319.063,243.379 319.280 " stroke="none" fill="#fafafa" fill-rule="evenodd"></path><path id="path2" d="M215.884 52.224 C 216.269 52.324,216.898 52.324,217.283 52.224 C 217.667 52.123,217.353 52.041,216.583 52.041 C 215.814 52.041,215.500 52.123,215.884 52.224 M257.443 54.146 C 257.448 55.025,257.530 55.338,257.625 54.840 C 257.721 54.343,257.717 53.624,257.617 53.242 C 257.517 52.860,257.439 53.267,257.443 54.146 M216.683 65.810 C 217.068 65.910,217.697 65.910,218.082 65.810 C 218.467 65.709,218.152 65.627,217.383 65.627 C 216.613 65.627,216.299 65.709,216.683 65.810 M195.904 68.607 C 196.289 68.708,196.918 68.708,197.303 68.607 C 197.687 68.507,197.373 68.424,196.603 68.424 C 195.834 68.424,195.519 68.507,195.904 68.607 M107.493 72.927 C 106.522 73.916,105.818 74.725,105.928 74.725 C 106.037 74.725,106.921 73.916,107.892 72.927 C 108.863 71.938,109.567 71.129,109.457 71.129 C 109.347 71.129,108.463 71.938,107.493 72.927 M175.125 71.404 C 175.509 71.505,176.139 71.505,176.523 71.404 C 176.908 71.304,176.593 71.222,175.824 71.222 C 175.055 71.222,174.740 71.304,175.125 71.404 M99.642 94.106 C 99.641 96.084,99.709 96.943,99.792 96.016 C 99.876 95.089,99.877 93.470,99.795 92.420 C 99.712 91.369,99.644 92.128,99.642 94.106 M128.467 165.235 C 128.467 204.356,128.514 220.300,128.571 200.668 C 128.629 181.035,128.629 149.027,128.571 129.539 C 128.514 110.051,128.467 126.114,128.467 165.235 M280.120 94.431 C 280.120 94.500,280.704 95.084,281.419 95.729 L 282.717 96.903 281.544 95.604 C 280.450 94.394,280.120 94.122,280.120 94.431 M285.110 172.827 C 285.110 211.289,285.157 226.964,285.215 207.661 C 285.272 188.358,285.272 156.889,285.215 137.731 C 285.157 118.572,285.110 134.366,285.110 172.827 M99.624 107.692 C 99.627 109.011,99.701 109.502,99.790 108.784 C 99.879 108.066,99.877 106.987,99.786 106.386 C 99.695 105.786,99.622 106.374,99.624 107.692 M178.532 112.181 C 179.472 112.266,180.910 112.264,181.729 112.179 C 182.547 112.093,181.778 112.024,180.020 112.025 C 178.262 112.027,177.592 112.097,178.532 112.181 M224.276 112.187 C 227.957 112.253,233.981 112.253,237.662 112.187 C 241.344 112.121,238.332 112.067,230.969 112.067 C 223.606 112.067,220.594 112.121,224.276 112.187 M99.628 121.479 C 99.628 122.907,99.701 123.492,99.790 122.777 C 99.878 122.063,99.878 120.894,99.790 120.180 C 99.701 119.466,99.628 120.050,99.628 121.479 M192.352 123.876 C 192.352 125.964,192.419 126.818,192.502 125.774 C 192.584 124.730,192.584 123.022,192.502 121.978 C 192.419 120.934,192.352 121.788,192.352 123.876 M237.855 126.673 C 237.855 127.443,237.937 127.757,238.038 127.373 C 238.138 126.988,238.138 126.359,238.038 125.974 C 237.937 125.589,237.855 125.904,237.855 126.673 M224.322 129.670 C 224.323 131.868,224.390 132.716,224.471 131.555 C 224.552 130.394,224.551 128.596,224.469 127.559 C 224.387 126.522,224.321 127.473,224.322 129.670 M242.282 136.863 C 242.284 138.182,242.359 138.673,242.447 137.955 C 242.536 137.237,242.535 136.158,242.443 135.557 C 242.352 134.957,242.279 135.544,242.282 136.863 M182.342 137.263 C 182.344 138.581,182.418 139.073,182.507 138.354 C 182.596 137.636,182.594 136.557,182.503 135.957 C 182.412 135.356,182.339 135.944,182.342 137.263 M219.489 136.663 C 219.489 137.652,219.567 138.057,219.663 137.562 C 219.758 137.068,219.758 136.259,219.663 135.764 C 219.567 135.270,219.489 135.674,219.489 136.663 M159.533 136.663 C 159.533 137.433,159.616 137.747,159.716 137.363 C 159.817 136.978,159.817 136.349,159.716 135.964 C 159.616 135.579,159.533 135.894,159.533 136.663 M192.766 141.858 C 192.766 145.045,192.828 146.349,192.904 144.755 C 192.980 143.162,192.980 140.554,192.904 138.961 C 192.828 137.368,192.766 138.671,192.766 141.858 M160.901 140.759 C 161.003 140.924,165.560 141.059,171.029 141.059 C 176.498 141.059,181.055 140.924,181.157 140.759 C 181.259 140.594,176.701 140.460,171.029 140.460 C 165.357 140.460,160.799 140.594,160.901 140.759 M163.536 156.143 C 167.438 156.209,173.821 156.209,177.722 156.143 C 181.623 156.078,178.432 156.024,170.629 156.024 C 162.827 156.024,159.635 156.078,163.536 156.143 M223.851 156.143 C 227.518 156.209,233.632 156.209,237.437 156.143 C 241.242 156.078,238.242 156.024,230.769 156.024 C 223.297 156.023,220.183 156.077,223.851 156.143 M151.427 175.325 L 150.050 176.823 151.548 175.446 C 152.373 174.689,153.047 174.014,153.047 173.948 C 153.047 173.642,152.709 173.930,151.427 175.325 M257.063 182.617 C 257.063 183.826,257.138 184.321,257.229 183.716 C 257.321 183.112,257.321 182.123,257.229 181.518 C 257.138 180.914,257.063 181.409,257.063 182.617 M164.502 185.681 C 164.356 185.828,164.236 187.615,164.236 189.654 L 164.236 193.361 162.634 193.523 L 161.033 193.685 162.734 193.646 L 164.436 193.606 164.635 189.510 C 164.745 187.256,164.820 185.413,164.802 185.414 C 164.784 185.414,164.649 185.534,164.502 185.681 M177.966 189.810 C 177.966 191.898,178.034 192.752,178.116 191.708 C 178.198 190.664,178.198 188.956,178.116 187.912 C 178.034 186.868,177.966 187.722,177.966 189.810 M192.767 194.805 C 192.768 198.102,192.830 199.397,192.905 197.684 C 192.980 195.971,192.979 193.273,192.904 191.690 C 192.828 190.107,192.767 191.508,192.767 194.805 M182.342 197.203 C 182.344 198.521,182.418 199.013,182.507 198.295 C 182.596 197.576,182.594 196.497,182.503 195.897 C 182.412 195.296,182.339 195.884,182.342 197.203 M99.652 208.591 C 99.652 211.119,99.716 212.153,99.796 210.889 C 99.875 209.625,99.875 207.557,99.796 206.294 C 99.716 205.030,99.652 206.064,99.652 208.591 M99.624 216.783 C 99.627 218.102,99.701 218.593,99.790 217.875 C 99.879 217.157,99.877 216.078,99.786 215.477 C 99.695 214.877,99.622 215.465,99.624 216.783 M118.082 230.969 C 118.940 231.848,119.733 232.567,119.843 232.567 C 119.952 232.567,119.340 231.848,118.482 230.969 C 117.623 230.090,116.831 229.371,116.721 229.371 C 116.611 229.371,117.223 230.090,118.082 230.969 M109.690 240.959 C 110.549 241.838,111.341 242.557,111.451 242.557 C 111.561 242.557,110.948 241.838,110.090 240.959 C 109.231 240.080,108.439 239.361,108.329 239.361 C 108.219 239.361,108.832 240.080,109.690 240.959 M132.974 251.239 C 133.692 251.328,134.771 251.326,135.372 251.235 C 135.972 251.143,135.385 251.071,134.066 251.073 C 132.747 251.075,132.256 251.150,132.974 251.239 M141.558 251.247 C 144.141 251.317,148.367 251.317,150.949 251.247 C 153.531 251.178,151.419 251.121,146.254 251.121 C 141.089 251.121,138.976 251.178,141.558 251.247 M262.438 251.646 C 264.251 251.720,267.218 251.720,269.031 251.646 C 270.844 251.572,269.361 251.511,265.734 251.511 C 262.108 251.511,260.624 251.572,262.438 251.646 M56.449 293.593 C 57.056 293.685,57.956 293.683,58.447 293.588 C 58.939 293.493,58.442 293.418,57.343 293.421 C 56.244 293.424,55.842 293.502,56.449 293.593 M189.597 315.684 C 189.597 327.882,189.648 332.872,189.710 326.773 C 189.772 320.674,189.772 310.694,189.710 304.595 C 189.648 298.497,189.597 303.487,189.597 315.684 M336.642 306.494 C 336.642 313.636,336.696 316.558,336.763 312.987 C 336.829 309.416,336.829 303.571,336.763 300.000 C 336.696 296.429,336.642 299.351,336.642 306.494 M229.071 294.804 C 231.653 294.874,235.879 294.874,238.462 294.804 C 241.044 294.734,238.931 294.677,233.766 294.677 C 228.601 294.677,226.489 294.734,229.071 294.804 M56.044 300.386 C 56.648 300.478,57.637 300.478,58.242 300.386 C 58.846 300.295,58.352 300.220,57.143 300.220 C 55.934 300.220,55.440 300.295,56.044 300.386 M244.190 303.544 C 244.721 304.229,245.235 304.718,245.333 304.631 C 245.432 304.543,244.998 303.982,244.369 303.384 L 243.226 302.298 244.190 303.544 M171.134 305.981 C 171.742 306.073,172.641 306.070,173.132 305.976 C 173.624 305.881,173.127 305.806,172.028 305.809 C 170.929 305.812,170.527 305.889,171.134 305.981 M205.295 305.976 C 205.789 306.072,206.598 306.072,207.093 305.976 C 207.587 305.881,207.183 305.803,206.194 305.803 C 205.205 305.803,204.800 305.881,205.295 305.976 M273.027 305.981 C 273.631 306.072,274.620 306.072,275.225 305.981 C 275.829 305.889,275.335 305.814,274.126 305.814 C 272.917 305.814,272.423 305.889,273.027 305.981 M307.792 305.981 C 308.397 306.072,309.386 306.072,309.990 305.981 C 310.594 305.889,310.100 305.814,308.891 305.814 C 307.682 305.814,307.188 305.889,307.792 305.981 M132.267 322.158 C 132.158 330.884,132.205 337.885,132.372 337.718 C 132.540 337.550,132.630 330.411,132.572 321.853 L 132.467 306.294 132.267 322.158 M136.398 309.291 C 136.398 310.939,136.469 311.613,136.555 310.789 C 136.641 309.965,136.641 308.616,136.555 307.792 C 136.469 306.968,136.398 307.642,136.398 309.291 M154.769 309.890 C 154.771 311.209,154.846 311.700,154.935 310.982 C 155.024 310.264,155.022 309.185,154.931 308.584 C 154.840 307.984,154.767 308.571,154.769 309.890 M136.626 313.011 C 136.805 313.189,137.831 313.276,138.905 313.205 L 140.859 313.074 138.580 312.881 C 137.327 312.774,136.448 312.833,136.626 313.011 M151.449 312.887 L 148.052 313.138 151.325 313.212 C 153.161 313.254,154.707 313.111,154.845 312.887 C 154.981 312.667,155.037 312.521,154.969 312.562 C 154.901 312.603,153.317 312.749,151.449 312.887 M171.333 312.770 C 171.830 312.866,172.550 312.862,172.932 312.762 C 173.314 312.662,172.907 312.584,172.028 312.588 C 171.149 312.593,170.836 312.675,171.333 312.770 M273.427 312.763 C 273.811 312.863,274.441 312.863,274.825 312.763 C 275.210 312.662,274.895 312.580,274.126 312.580 C 273.357 312.580,273.042 312.662,273.427 312.763 M307.992 312.770 C 308.487 312.865,309.296 312.865,309.790 312.770 C 310.285 312.674,309.880 312.596,308.891 312.596 C 307.902 312.596,307.498 312.674,307.992 312.770 M209.872 328.148 C 209.827 333.355,209.925 337.699,210.090 337.801 C 210.255 337.904,210.343 335.172,210.286 331.731 C 210.091 319.888,209.954 318.703,209.872 328.148 M237.254 319.170 C 237.963 319.258,239.222 319.259,240.051 319.173 C 240.880 319.086,240.300 319.014,238.761 319.012 C 237.223 319.010,236.544 319.081,237.254 319.170 M164.763 322.078 C 164.763 323.506,164.836 324.091,164.924 323.377 C 165.013 322.662,165.013 321.494,164.924 320.779 C 164.836 320.065,164.763 320.649,164.763 322.078 M265.849 322.278 C 265.852 323.377,265.929 323.779,266.021 323.171 C 266.113 322.564,266.110 321.665,266.016 321.173 C 265.921 320.682,265.846 321.179,265.849 322.278 M178.089 327.140 C 177.942 327.286,177.825 327.601,177.828 327.839 C 177.832 328.107,177.951 328.088,178.142 327.788 C 178.336 327.483,179.841 327.256,182.231 327.172 L 186.014 327.039 182.184 326.956 C 180.078 326.910,178.235 326.993,178.089 327.140 M336.616 333.067 C 336.617 335.704,336.682 336.731,336.760 335.349 C 336.838 333.967,336.837 331.809,336.758 330.554 C 336.679 329.299,336.615 330.430,336.616 333.067 M154.782 334.665 C 154.784 336.424,154.854 337.093,154.938 336.153 C 155.023 335.213,155.022 333.775,154.936 332.956 C 154.850 332.138,154.781 332.907,154.782 334.665 M88.417 337.949 C 89.025 338.041,89.924 338.038,90.415 337.944 C 90.907 337.849,90.410 337.774,89.311 337.777 C 88.212 337.780,87.810 337.857,88.417 337.949 M107.803 337.955 C 108.743 338.040,110.181 338.039,111.000 337.953 C 111.818 337.867,111.049 337.798,109.291 337.799 C 107.532 337.801,106.863 337.871,107.803 337.955 M192.320 337.957 C 193.370 338.039,194.989 338.038,195.916 337.954 C 196.844 337.871,195.984 337.803,194.006 337.804 C 192.028 337.805,191.269 337.874,192.320 337.957 M212.687 337.953 C 213.511 338.040,214.860 338.040,215.684 337.953 C 216.508 337.867,215.834 337.797,214.186 337.797 C 212.537 337.797,211.863 337.867,212.687 337.953 M229.893 337.961 C 232.487 338.031,236.623 338.030,239.083 337.960 C 241.544 337.890,239.421 337.833,234.366 337.834 C 229.311 337.834,227.298 337.891,229.893 337.961 M331.369 337.953 C 332.193 338.040,333.541 338.040,334.366 337.953 C 335.190 337.867,334.515 337.797,332.867 337.797 C 331.219 337.797,330.544 337.867,331.369 337.953 M355.345 337.938 C 355.729 338.038,356.359 338.038,356.743 337.938 C 357.128 337.837,356.813 337.755,356.044 337.755 C 355.275 337.755,354.960 337.837,355.345 337.938 " stroke="none" fill="#727a85" fill-rule="evenodd"></path><path id="path3" d="M241.263 49.034 C 241.760 49.129,242.480 49.126,242.862 49.026 C 243.244 48.926,242.837 48.848,241.958 48.852 C 241.079 48.856,240.766 48.938,241.263 49.034 M220.280 51.824 C 220.664 51.924,221.294 51.924,221.678 51.824 C 222.063 51.723,221.748 51.641,220.979 51.641 C 220.210 51.641,219.895 51.723,220.280 51.824 M199.500 54.621 C 199.885 54.722,200.514 54.722,200.899 54.621 C 201.284 54.521,200.969 54.438,200.200 54.438 C 199.431 54.438,199.116 54.521,199.500 54.621 M179.520 57.418 C 179.905 57.519,180.534 57.519,180.919 57.418 C 181.304 57.318,180.989 57.236,180.220 57.236 C 179.451 57.236,179.136 57.318,179.520 57.418 M158.546 60.223 C 159.043 60.318,159.762 60.315,160.145 60.215 C 160.527 60.115,160.120 60.036,159.241 60.041 C 158.362 60.045,158.049 60.127,158.546 60.223 M149.550 61.414 C 149.935 61.515,150.564 61.515,150.949 61.414 C 151.334 61.314,151.019 61.232,150.250 61.232 C 149.481 61.232,149.166 61.314,149.550 61.414 M137.962 63.013 C 138.347 63.113,138.976 63.113,139.361 63.013 C 139.745 62.912,139.431 62.830,138.661 62.830 C 137.892 62.830,137.577 62.912,137.962 63.013 M233.067 63.412 C 233.452 63.513,234.081 63.513,234.466 63.412 C 234.850 63.312,234.535 63.230,233.766 63.230 C 232.997 63.230,232.682 63.312,233.067 63.412 M128.771 64.212 C 129.156 64.312,129.785 64.312,130.170 64.212 C 130.554 64.111,130.240 64.029,129.471 64.029 C 128.701 64.029,128.387 64.111,128.771 64.212 M211.888 66.210 C 212.273 66.310,212.902 66.310,213.287 66.210 C 213.671 66.109,213.357 66.027,212.587 66.027 C 211.818 66.027,211.503 66.109,211.888 66.210 M191.109 69.007 C 191.494 69.107,192.123 69.107,192.507 69.007 C 192.892 68.906,192.577 68.824,191.808 68.824 C 191.039 68.824,190.724 68.906,191.109 69.007 M170.729 71.804 C 171.114 71.904,171.743 71.904,172.128 71.804 C 172.512 71.703,172.198 71.621,171.429 71.621 C 170.659 71.621,170.345 71.703,170.729 71.804 M150.350 74.601 C 150.734 74.702,151.364 74.702,151.748 74.601 C 152.133 74.501,151.818 74.418,151.049 74.418 C 150.280 74.418,149.965 74.501,150.350 74.601 M141.159 75.800 C 141.543 75.900,142.173 75.900,142.557 75.800 C 142.942 75.699,142.627 75.617,141.858 75.617 C 141.089 75.617,140.774 75.699,141.159 75.800 M117.657 83.217 L 116.484 84.515 117.782 83.342 C 118.993 82.248,119.265 81.918,118.956 81.918 C 118.887 81.918,118.303 82.502,117.657 83.217 M167.701 92.208 C 187.079 92.265,218.907 92.265,238.430 92.208 C 257.953 92.150,242.098 92.104,203.197 92.104 C 164.296 92.103,148.322 92.150,167.701 92.208 M113.282 157.842 C 113.282 193.556,113.329 208.167,113.387 190.310 C 113.444 172.453,113.444 143.232,113.387 125.375 C 113.329 107.517,113.282 122.128,113.282 157.842 M279.720 94.431 C 279.720 94.500,280.305 95.084,281.019 95.729 L 282.318 96.903 281.144 95.604 C 280.050 94.394,279.720 94.122,279.720 94.431 M180.719 111.764 C 181.104 111.864,181.733 111.864,182.118 111.764 C 182.502 111.663,182.188 111.581,181.419 111.581 C 180.649 111.581,180.335 111.663,180.719 111.764 M219.086 111.775 C 219.694 111.867,220.593 111.865,221.084 111.770 C 221.576 111.675,221.079 111.600,219.980 111.603 C 218.881 111.606,218.479 111.683,219.086 111.775 M232.089 111.787 C 234.354 111.858,237.950 111.858,240.081 111.786 C 242.212 111.714,240.360 111.656,235.964 111.656 C 231.568 111.657,229.825 111.715,232.089 111.787 M161.538 112.186 C 163.901 112.257,167.767 112.257,170.130 112.186 C 172.493 112.116,170.559 112.058,165.834 112.058 C 161.109 112.058,159.176 112.116,161.538 112.186 M151.224 115.185 L 150.050 116.484 151.349 115.310 C 152.063 114.664,152.647 114.080,152.647 114.011 C 152.647 113.702,152.318 113.974,151.224 115.185 M148.383 124.076 C 148.385 125.614,148.457 126.195,148.543 125.366 C 148.630 124.537,148.628 123.278,148.540 122.569 C 148.452 121.859,148.381 122.537,148.383 124.076 M168.314 124.971 C 169.788 125.048,172.306 125.048,173.909 124.972 C 175.512 124.896,174.306 124.834,171.229 124.833 C 168.152 124.832,166.840 124.895,168.314 124.971 M192.757 130.070 C 192.758 132.488,192.824 133.425,192.903 132.153 C 192.983 130.881,192.982 128.903,192.901 127.758 C 192.821 126.612,192.756 127.652,192.757 130.070 M252.714 139.660 C 252.714 143.836,252.774 145.490,252.846 143.336 C 252.918 141.182,252.917 137.765,252.845 135.743 C 252.773 133.722,252.714 135.485,252.714 139.660 M238.121 133.586 C 238.308 133.772,239.067 133.862,239.809 133.785 C 241.126 133.650,241.117 133.642,239.471 133.447 C 238.543 133.337,237.935 133.400,238.121 133.586 M178.526 133.749 C 179.023 133.845,179.742 133.841,180.125 133.741 C 180.507 133.641,180.100 133.563,179.221 133.567 C 178.342 133.572,178.029 133.654,178.526 133.749 M220.431 133.783 C 220.324 133.956,220.898 134.036,221.706 133.959 C 224.177 133.725,224.469 133.562,222.501 133.513 C 221.470 133.487,220.539 133.609,220.431 133.783 M219.908 137.063 C 219.908 138.492,219.981 139.076,220.069 138.362 C 220.158 137.647,220.158 136.479,220.069 135.764 C 219.981 135.050,219.908 135.634,219.908 137.063 M148.376 139.261 C 148.378 140.579,148.452 141.071,148.541 140.352 C 148.630 139.634,148.628 138.555,148.537 137.955 C 148.446 137.354,148.373 137.942,148.376 139.261 M208.334 140.460 C 208.332 142.438,208.400 143.297,208.484 142.370 C 208.568 141.442,208.569 139.824,208.486 138.773 C 208.403 137.723,208.335 138.482,208.334 140.460 M165.934 140.558 C 168.736 140.627,173.322 140.627,176.124 140.558 C 178.926 140.490,176.633 140.433,171.029 140.433 C 165.425 140.433,163.132 140.490,165.934 140.558 M224.649 171.728 C 228.975 171.792,236.168 171.792,240.633 171.728 C 245.098 171.664,241.558 171.611,232.767 171.611 C 223.976 171.611,220.323 171.663,224.649 171.728 M164.535 172.127 C 168.107 172.193,173.951 172.193,177.522 172.127 C 181.094 172.061,178.172 172.007,171.029 172.007 C 163.886 172.007,160.964 172.061,164.535 172.127 M192.739 183.616 C 192.740 185.155,192.813 185.735,192.899 184.906 C 192.986 184.077,192.984 182.818,192.896 182.109 C 192.808 181.400,192.737 182.078,192.739 183.616 M257.534 215.185 C 257.534 234.086,257.583 241.760,257.642 232.238 C 257.702 222.716,257.702 207.251,257.642 197.872 C 257.583 188.493,257.534 196.284,257.534 215.185 M168.531 184.912 C 170.125 184.988,172.732 184.988,174.326 184.912 C 175.919 184.836,174.615 184.774,171.429 184.774 C 168.242 184.774,166.938 184.836,168.531 184.912 M160.320 194.286 C 159.800 194.805,159.649 199.234,160.140 199.540 C 160.305 199.642,160.378 198.657,160.303 197.350 C 160.219 195.883,160.353 194.751,160.652 194.390 C 161.235 193.687,160.994 193.611,160.320 194.286 M207.916 197.602 C 207.918 198.921,207.993 199.412,208.082 198.694 C 208.171 197.976,208.169 196.897,208.078 196.297 C 207.987 195.696,207.914 196.284,207.916 197.602 M166.134 200.498 C 168.826 200.567,173.232 200.567,175.924 200.498 C 178.616 200.429,176.414 200.373,171.029 200.373 C 165.644 200.373,163.442 200.429,166.134 200.498 M207.923 203.996 C 207.925 205.534,207.997 206.115,208.084 205.286 C 208.170 204.457,208.169 203.198,208.081 202.489 C 207.992 201.779,207.922 202.458,207.923 203.996 M160.939 216.482 C 162.972 216.554,166.299 216.554,168.332 216.482 C 170.365 216.409,168.701 216.350,164.635 216.350 C 160.569 216.350,158.906 216.409,160.939 216.482 M116.683 229.895 C 116.683 229.964,117.268 230.548,117.982 231.194 L 119.281 232.368 118.107 231.069 C 117.013 229.858,116.683 229.587,116.683 229.895 M195.383 233.666 L 194.006 235.165 195.504 233.788 C 196.899 232.506,197.187 232.168,196.882 232.168 C 196.815 232.168,196.140 232.842,195.383 233.666 M129.570 250.825 C 129.955 250.925,130.584 250.925,130.969 250.825 C 131.354 250.724,131.039 250.642,130.270 250.642 C 129.500 250.642,129.186 250.724,129.570 250.825 M156.548 250.832 C 157.045 250.928,157.764 250.924,158.147 250.824 C 158.529 250.724,158.122 250.646,157.243 250.650 C 156.364 250.655,156.051 250.736,156.548 250.832 M193.506 293.999 L 197.003 294.136 197.003 302.313 C 197.003 309.905,197.202 311.385,198.040 310.028 C 198.215 309.745,198.150 309.675,197.872 309.847 C 197.542 310.051,197.390 307.936,197.311 302.016 L 197.203 293.906 193.606 293.884 L 190.010 293.861 193.506 293.999 M329.054 294.206 C 328.949 294.481,328.912 304.416,328.971 316.284 L 329.078 337.862 329.174 315.999 L 329.271 294.136 332.967 294.004 L 336.663 293.872 332.954 293.789 C 330.292 293.730,329.192 293.847,329.054 294.206 M223.963 316.284 C 223.963 328.152,224.014 332.949,224.076 326.945 C 224.138 320.940,224.138 311.230,224.076 305.366 C 224.013 299.503,223.962 304.416,223.963 316.284 M132.468 297.902 C 132.468 299.069,132.602 299.940,132.767 299.838 C 132.932 299.736,133.067 298.865,133.067 297.902 C 133.067 296.939,132.932 296.068,132.767 295.966 C 132.602 295.864,132.468 296.735,132.468 297.902 M123.969 297.702 C 123.969 298.472,124.051 298.786,124.152 298.402 C 124.252 298.017,124.252 297.388,124.152 297.003 C 124.051 296.618,123.969 296.933,123.969 297.702 M140.940 298.754 C 140.786 298.908,140.659 300.699,140.659 302.735 C 140.659 305.696,140.538 306.473,140.052 306.623 C 139.627 306.755,139.657 306.793,140.152 306.748 C 140.767 306.692,140.874 306.177,140.974 302.793 L 141.088 298.901 144.456 298.901 L 147.823 298.901 147.960 302.698 L 148.098 306.495 148.075 302.598 L 148.052 298.701 144.636 298.587 C 142.758 298.524,141.095 298.599,140.940 298.754 M231.143 301.820 C 231.033 302.107,230.995 304.580,231.058 307.315 L 231.173 312.288 231.371 306.793 C 231.566 301.376,231.539 300.790,231.143 301.820 M127.772 301.980 C 128.267 302.076,129.076 302.076,129.570 301.980 C 130.065 301.885,129.660 301.807,128.671 301.807 C 127.682 301.807,127.278 301.885,127.772 301.980 M42.458 305.894 C 42.463 306.773,42.545 307.086,42.640 306.589 C 42.736 306.092,42.732 305.372,42.632 304.990 C 42.532 304.608,42.454 305.015,42.458 305.894 M71.928 305.413 C 71.928 305.958,71.327 306.085,68.232 306.196 L 64.535 306.328 68.244 306.411 C 71.824 306.491,73.176 306.010,72.177 305.011 C 72.040 304.874,71.928 305.055,71.928 305.413 M77.622 306.785 C 78.447 306.871,79.795 306.871,80.619 306.785 C 81.444 306.698,80.769 306.628,79.121 306.628 C 77.473 306.628,76.798 306.698,77.622 306.785 M97.602 306.785 C 98.427 306.871,99.775 306.871,100.599 306.785 C 101.424 306.698,100.749 306.628,99.101 306.628 C 97.453 306.628,96.778 306.698,97.602 306.785 M116.384 306.785 C 117.208 306.871,118.556 306.871,119.381 306.785 C 120.205 306.698,119.530 306.628,117.882 306.628 C 116.234 306.628,115.559 306.698,116.384 306.785 M124.858 306.994 C 124.752 307.270,124.713 314.328,124.771 322.679 L 124.876 337.862 125.075 322.178 C 125.185 313.551,125.224 306.493,125.162 306.493 C 125.100 306.493,124.963 306.719,124.858 306.994 M127.373 306.786 C 128.307 306.870,129.835 306.870,130.769 306.786 C 131.703 306.702,130.939 306.633,129.071 306.633 C 127.203 306.633,126.439 306.702,127.373 306.786 M151.154 306.780 C 151.762 306.872,152.661 306.870,153.152 306.775 C 153.644 306.680,153.147 306.605,152.048 306.608 C 150.949 306.611,150.547 306.688,151.154 306.780 M350.363 306.789 C 351.524 306.870,353.322 306.869,354.359 306.787 C 355.396 306.705,354.446 306.638,352.248 306.639 C 350.050 306.640,349.202 306.708,350.363 306.789 M161.214 310.190 L 160.040 311.489 161.339 310.315 C 162.549 309.221,162.821 308.891,162.512 308.891 C 162.444 308.891,161.859 309.476,161.214 310.190 M284.116 309.416 C 284.116 309.485,284.700 310.069,285.415 310.714 L 286.713 311.888 285.540 310.589 C 284.446 309.379,284.116 309.107,284.116 309.416 M297.281 310.789 L 295.904 312.288 297.403 310.911 C 298.797 309.629,299.085 309.291,298.780 309.291 C 298.713 309.291,298.039 309.965,297.281 310.789 M318.881 309.416 C 318.881 309.485,319.466 310.069,320.180 310.714 L 321.479 311.888 320.305 310.589 C 319.211 309.379,318.881 309.107,318.881 309.416 M138.554 312.770 L 140.644 312.928 140.763 321.899 L 140.882 330.870 140.871 321.778 L 140.859 312.687 138.661 312.649 L 136.464 312.611 138.554 312.770 M149.750 312.780 C 150.684 312.864,152.213 312.864,153.147 312.780 C 154.081 312.696,153.317 312.627,151.449 312.627 C 149.580 312.627,148.816 312.696,149.750 312.780 M233.849 312.783 C 235.323 312.860,237.840 312.861,239.443 312.785 C 241.046 312.709,239.840 312.646,236.763 312.645 C 233.686 312.645,232.375 312.707,233.849 312.783 M275.724 312.621 C 275.724 312.724,276.305 313.011,277.014 313.258 C 277.723 313.506,278.128 313.544,277.913 313.342 C 277.458 312.917,275.724 312.345,275.724 312.621 M148.021 321.279 C 148.021 325.784,148.079 327.627,148.150 325.375 C 148.221 323.122,148.221 319.436,148.150 317.183 C 148.079 314.930,148.021 316.773,148.021 321.279 M198.776 314.985 L 197.602 316.284 198.901 315.110 C 200.112 314.016,200.383 313.686,200.075 313.686 C 200.006 313.686,199.422 314.271,198.776 314.985 M250.949 316.609 C 250.949 316.677,251.533 317.262,252.248 317.907 L 253.546 319.081 252.373 317.782 C 251.279 316.572,250.949 316.300,250.949 316.609 M217.557 327.273 C 217.557 333.097,217.613 335.480,217.681 332.567 C 217.750 329.655,217.750 324.890,217.681 321.978 C 217.613 319.066,217.557 321.449,217.557 327.273 M300.749 318.697 C 300.612 319.054,300.515 319.646,300.534 320.013 C 300.553 320.379,300.727 320.149,300.920 319.501 C 301.297 318.239,301.164 317.615,300.749 318.697 M157.187 322.078 C 157.187 324.166,157.254 325.020,157.337 323.976 C 157.419 322.932,157.419 321.224,157.337 320.180 C 157.254 319.136,157.187 319.990,157.187 322.078 M197.176 328.072 C 197.176 333.457,197.232 335.659,197.301 332.967 C 197.371 330.275,197.371 325.869,197.301 323.177 C 197.232 320.485,197.176 322.687,197.176 328.072 M231.128 324.476 C 231.128 327.662,231.190 328.966,231.266 327.373 C 231.342 325.779,231.342 323.172,231.266 321.578 C 231.190 319.985,231.128 321.289,231.128 324.476 M282.211 320.080 C 282.211 320.849,282.293 321.164,282.393 320.779 C 282.494 320.395,282.494 319.765,282.393 319.381 C 282.293 318.996,282.211 319.311,282.211 320.080 M317.020 322.278 C 317.022 324.036,317.092 324.706,317.176 323.766 C 317.261 322.826,317.259 321.387,317.174 320.569 C 317.088 319.750,317.019 320.519,317.020 322.278 M324.599 322.278 C 324.602 323.596,324.676 324.088,324.765 323.369 C 324.854 322.651,324.852 321.572,324.761 320.972 C 324.670 320.371,324.597 320.959,324.599 322.278 M164.350 322.278 C 164.353 323.377,164.431 323.779,164.523 323.171 C 164.614 322.564,164.612 321.665,164.517 321.173 C 164.422 320.682,164.347 321.179,164.350 322.278 M289.830 322.478 C 289.830 323.686,289.905 324.181,289.997 323.576 C 290.088 322.972,290.088 321.983,289.997 321.379 C 289.905 320.774,289.830 321.269,289.830 322.478 M258.235 322.078 C 258.235 322.847,258.317 323.162,258.417 322.777 C 258.518 322.393,258.518 321.763,258.417 321.379 C 258.317 320.994,258.235 321.309,258.235 322.078 M293.008 322.278 C 293.012 323.157,293.094 323.469,293.190 322.972 C 293.285 322.475,293.282 321.756,293.182 321.374 C 293.082 320.992,293.003 321.399,293.008 322.278 M282.211 324.076 C 282.211 324.845,282.293 325.160,282.393 324.775 C 282.494 324.391,282.494 323.761,282.393 323.377 C 282.293 322.992,282.211 323.307,282.211 324.076 M73.635 325.275 C 73.635 326.264,73.713 326.668,73.808 326.174 C 73.904 325.679,73.904 324.870,73.808 324.376 C 73.713 323.881,73.635 324.286,73.635 325.275 M66.035 325.874 C 66.039 326.753,66.121 327.066,66.217 326.569 C 66.312 326.072,66.309 325.352,66.209 324.970 C 66.109 324.588,66.030 324.995,66.035 325.874 M42.112 325.451 C 41.990 325.768,41.975 326.352,42.078 326.750 C 42.202 327.229,42.281 327.107,42.311 326.388 L 42.358 325.304 46.254 325.173 L 50.150 325.042 46.241 324.959 C 43.150 324.893,42.286 324.996,42.112 325.451 M231.319 330.981 C 231.491 331.152,234.135 331.241,237.195 331.179 L 242.757 331.066 236.882 330.868 C 233.650 330.759,231.147 330.809,231.319 330.981 M57.443 331.950 C 57.937 332.046,58.746 332.046,59.241 331.950 C 59.735 331.855,59.331 331.777,58.342 331.777 C 57.353 331.777,56.948 331.855,57.443 331.950 M171.528 331.944 C 171.913 332.044,172.542 332.044,172.927 331.944 C 173.312 331.843,172.997 331.761,172.228 331.761 C 171.459 331.761,171.144 331.843,171.528 331.944 M273.227 331.950 C 273.721 332.046,274.530 332.046,275.025 331.950 C 275.519 331.855,275.115 331.777,274.126 331.777 C 273.137 331.777,272.732 331.855,273.227 331.950 M307.992 331.950 C 308.487 332.046,309.296 332.046,309.790 331.950 C 310.285 331.855,309.880 331.777,308.891 331.777 C 307.902 331.777,307.498 331.855,307.992 331.950 M320.255 333.766 L 319.081 335.065 320.380 333.891 C 321.094 333.246,321.678 332.661,321.678 332.593 C 321.678 332.284,321.349 332.556,320.255 333.766 M182.196 334.765 L 180.819 336.264 182.318 334.887 C 183.712 333.605,184.000 333.267,183.695 333.267 C 183.628 333.267,182.954 333.941,182.196 334.765 M152.153 337.945 C 152.650 338.041,153.369 338.037,153.751 337.937 C 154.133 337.837,153.726 337.759,152.847 337.763 C 151.968 337.768,151.655 337.849,152.153 337.945 " stroke="none" fill="#969ca6" fill-rule="evenodd"></path><path id="path4" d="M99.624 99.700 C 99.627 101.019,99.701 101.510,99.790 100.792 C 99.879 100.074,99.877 98.995,99.786 98.394 C 99.695 97.794,99.622 98.382,99.624 99.700 M99.653 114.486 C 99.654 117.123,99.719 118.150,99.797 116.768 C 99.875 115.385,99.874 113.227,99.795 111.972 C 99.716 110.717,99.652 111.848,99.653 114.486 M174.930 112.171 C 175.427 112.266,176.146 112.263,176.528 112.163 C 176.910 112.063,176.503 111.984,175.624 111.989 C 174.745 111.993,174.433 112.075,174.930 112.171 M99.652 128.272 C 99.652 130.799,99.716 131.833,99.796 130.569 C 99.875 129.306,99.875 127.238,99.796 125.974 C 99.716 124.710,99.652 125.744,99.652 128.272 M237.886 130.070 C 237.888 131.389,237.963 131.880,238.052 131.162 C 238.141 130.443,238.139 129.365,238.048 128.764 C 237.957 128.164,237.884 128.751,237.886 130.070 M148.398 133.267 C 148.399 135.465,148.466 136.313,148.547 135.151 C 148.628 133.990,148.627 132.192,148.545 131.155 C 148.463 130.119,148.397 131.069,148.398 133.267 M99.620 135.864 C 99.620 137.073,99.695 137.567,99.787 136.963 C 99.878 136.359,99.878 135.370,99.787 134.765 C 99.695 134.161,99.620 134.655,99.620 135.864 M99.679 152.847 C 99.679 160.100,99.733 163.123,99.799 159.566 C 99.866 156.008,99.866 150.074,99.800 146.379 C 99.734 142.684,99.679 145.594,99.679 152.847 M148.376 143.656 C 148.378 144.975,148.452 145.466,148.541 144.748 C 148.630 144.030,148.628 142.951,148.537 142.350 C 148.446 141.750,148.373 142.338,148.376 143.656 M99.593 167.832 C 99.593 168.601,99.675 168.916,99.776 168.531 C 99.876 168.147,99.876 167.517,99.776 167.133 C 99.675 166.748,99.593 167.063,99.593 167.832 M99.664 176.823 C 99.664 180.559,99.724 182.142,99.797 180.339 C 99.871 178.537,99.872 175.480,99.798 173.546 C 99.725 171.612,99.664 173.087,99.664 176.823 M99.670 192.607 C 99.670 197.333,99.728 199.266,99.799 196.903 C 99.869 194.540,99.869 190.674,99.799 188.312 C 99.728 185.949,99.670 187.882,99.670 192.607 M192.708 187.612 C 192.713 188.492,192.794 188.804,192.890 188.307 C 192.986 187.810,192.982 187.091,192.882 186.709 C 192.782 186.327,192.704 186.733,192.708 187.612 M99.593 202.997 C 99.593 203.766,99.675 204.081,99.776 203.696 C 99.876 203.312,99.876 202.682,99.776 202.298 C 99.675 201.913,99.593 202.228,99.593 202.997 M234.079 301.594 C 235.241 301.675,237.039 301.674,238.075 301.592 C 239.112 301.510,238.162 301.444,235.964 301.445 C 233.766 301.446,232.918 301.513,234.079 301.594 M300.608 322.078 C 300.608 323.067,300.686 323.472,300.782 322.977 C 300.877 322.483,300.877 321.673,300.782 321.179 C 300.686 320.684,300.608 321.089,300.608 322.078 M351.149 337.944 C 351.643 338.040,352.453 338.040,352.947 337.944 C 353.442 337.849,353.037 337.771,352.048 337.771 C 351.059 337.771,350.654 337.849,351.149 337.944 " stroke="none" fill="#8a94a4" fill-rule="evenodd"></path></g></svg>