<?xml version="1.0" encoding="utf-8"?>
<!-- Generator: Adobe Illustrator 26.1.0, SVG Export Plug-In . SVG Version: 6.00 Build 0)  -->
<svg version="1.1" id="Layer_1" xmlns="http://www.w3.org/2000/svg" xmlns:xlink="http://www.w3.org/1999/xlink" x="0px" y="0px"
	 width="583.1px" height="583.1px" viewBox="0 0 583.1 583.1" style="enable-background:new 0 0 583.1 583.1;" xml:space="preserve"
	>
<style type="text/css">
	.st0{fill:#223F61;stroke:#141414;stroke-width:18;stroke-linejoin:round;stroke-miterlimit:10;}
	.st1{fill:#B15832;stroke:#2E190F;stroke-width:18;stroke-linejoin:round;stroke-miterlimit:10;}
	.st2{fill:#A7ADB6;stroke:#2F3133;stroke-width:18;stroke-miterlimit:10;}
</style>
<g>
	<path class="st0" d="M374.4,106.9l24.1-55.3c-44.1-20.2-91-33-139.4-22c-39.9,9.1-79.3,32.6-100.7,68.1c-12.1,20-19.3,44.1-14.3,67
		c6.6,30.4,33.1,52.6,61,66.3s58.6,21.3,85.9,36.1c14.6-19.9,29.2-39.7,43.8-59.6c-20-8.7-40-17.5-60-26.2
		c-15.7-6.9-37.2-12.6-48.5-26.4c-18.5-22.5,0.5-47.3,22.2-57c22.7-10,50-9.3,73.8-4.2C353.5,100.4,374.3,106.9,374.4,106.9z"/>
	<path class="st0" d="M269.1,446.6c-5.1-9.1-9.8-18.7-13.8-28.5c3.2,7.9-35.2,9.6-39,9c-15.6-2.8-30-10.5-42.4-20.2
		c-15.9-12.5-28.8-28.4-41.1-44.3c-1.5-1.9-23.1-32.8-23.8-32.4c-18.8,8.9-39.5,16.4-57.1,27.3c29,51.2,63.8,95.7,117.3,123.2
		c39.2,20.1,93.5,33,135.2,13.6C295.6,483.5,275.8,458.5,269.1,446.6z"/>
	<path class="st0" d="M260.8,280.2c9.5,4,18.9,8.1,28.4,12.2c26,11.4,59.3,25.8,59.4,59.9c0,23.1-19.8,40.3-39.1,49.3
		c-15.2,7.1-31.5,11.8-48,14.6c-8.3,1.4-35.8-21.6-35.8-21.6L315.2,521c71.9,11.4,152.4-0.4,191.7-75.7
		c25.6-48.9,24.6-111.1-2.5-159.1c-35.7-63.3-96-67-165.4-52.9C339,233.3,260.8,280.1,260.8,280.2z"/>
	<path class="st1" d="M24.4,266.9l145.7,60.3l51.7,86.2l76.7-185.1L201,252.7L55.3,192.3c-12.8-5.3-27.4,0.8-32.7,13.5l-11.8,28.4
		C5.6,247,11.7,261.6,24.4,266.9z"/>
	<path class="st2" d="M222.9,305.4c-38.7,93.4,5.7,200.5,99.1,239.2s200.5-5.7,239.2-99.1s-5.7-200.5-99.1-239.2
		S261.6,212,222.9,305.4z M505.9,422.7c-26.1,62.9-98.2,92.8-161.1,66.7s-92.8-98.2-66.7-161.1s98.2-92.8,161.1-66.7
		S532,359.8,505.9,422.7z"/>
</g>
</svg>
